# Blender v2.76 (sub 0) OBJ File: ''
# www.blender.org
o Cube_Cube.002
v -1.000000 -1.000000 1.000000
v -1.000000 -1.000000 -1.000000
v 1.000000 -1.000000 1.000000
v 1.000000 1.000000 1.000000
v 1.000000 1.000000 -1.000000
v 1.000000 -1.000000 -1.000000
v -1.000000 1.000000 1.000000
v -1.000000 1.000000 -1.000000
vt 0.999913 0.499913
vt 0.999913 0.749827
vt 0.750000 0.749827
vt 0.749827 0.250000
vt 0.499913 0.250000
vt 0.499913 0.000087
vt 0.750000 0.250000
vt 0.750000 0.000087
vt 0.999913 0.000087
vt 0.750000 0.499913
vt 0.000087 0.000087
vt 0.250000 0.000087
vt 0.250000 0.250000
vt 0.749827 0.000087
vt 0.999913 0.250000
vt 0.000087 0.250000
vn 0.000000 0.000000 -1.000000
vn 1.000000 0.000000 0.000000
vn 0.000000 0.000000 1.000000
vn 0.000000 1.000000 0.000000
vn -1.000000 0.000000 0.000000
vn 0.000000 -1.000000 0.000000
s off
f 5/1/1 6/2/1 2/3/1
f 4/4/2 3/5/2 6/6/2
f 7/7/3 1/8/3 3/9/3
f 5/1/4 8/10/4 7/7/4
f 8/11/5 2/12/5 1/13/5
f 2/12/6 6/6/6 3/5/6
f 8/10/1 5/1/1 2/3/1
f 5/14/2 4/4/2 6/6/2
f 4/15/3 7/7/3 3/9/3
f 4/15/4 5/1/4 7/7/4
f 7/16/5 8/11/5 1/13/5
f 1/13/6 2/12/6 3/5/6
